<mxfile host="app.diagrams.net" agent="Mozilla/5.0 (Windows NT 10.0; Win64; x64) AppleWebKit/537.36 (KHTML, like Gecko) Chrome/133.0.0.0 Safari/537.36" version="26.1.0">
  <diagram name="Page-1" id="VZCKwTBbSiobyEuf91Ms">
    <mxGraphModel dx="1900" dy="522" grid="1" gridSize="10" guides="1" tooltips="1" connect="1" arrows="1" fold="1" page="1" pageScale="1" pageWidth="850" pageHeight="1100" math="0" shadow="0">
      <root>
        <mxCell id="0" />
        <mxCell id="1" parent="0" />
        <mxCell id="PN8-9NpyLgQR28CPuivT-21" value="start" style="ellipse;whiteSpace=wrap;html=1;" vertex="1" parent="1">
          <mxGeometry x="-160" y="330" width="140" height="100" as="geometry" />
        </mxCell>
        <mxCell id="PN8-9NpyLgQR28CPuivT-34" style="edgeStyle=orthogonalEdgeStyle;rounded=0;orthogonalLoop=1;jettySize=auto;html=1;entryX=0;entryY=0.5;entryDx=0;entryDy=0;" edge="1" parent="1" source="PN8-9NpyLgQR28CPuivT-22" target="PN8-9NpyLgQR28CPuivT-23">
          <mxGeometry relative="1" as="geometry" />
        </mxCell>
        <mxCell id="PN8-9NpyLgQR28CPuivT-22" value="input assignment score, midterm score, final exam score" style="shape=parallelogram;perimeter=parallelogramPerimeter;whiteSpace=wrap;html=1;fixedSize=1;" vertex="1" parent="1">
          <mxGeometry x="50" y="340" width="300" height="100" as="geometry" />
        </mxCell>
        <mxCell id="PN8-9NpyLgQR28CPuivT-35" style="edgeStyle=orthogonalEdgeStyle;rounded=0;orthogonalLoop=1;jettySize=auto;html=1;" edge="1" parent="1" source="PN8-9NpyLgQR28CPuivT-23" target="PN8-9NpyLgQR28CPuivT-24">
          <mxGeometry relative="1" as="geometry" />
        </mxCell>
        <mxCell id="PN8-9NpyLgQR28CPuivT-23" value="&#xa;&lt;span class=&quot;hljs-attr&quot;&gt;weighted_average&lt;/span&gt; = (assignment_score * &lt;span class=&quot;hljs-number&quot;&gt;0.30&lt;/span&gt;) + (midterm_score * &lt;span class=&quot;hljs-number&quot;&gt;0.30&lt;/span&gt;) + (final_exam_score * &lt;span class=&quot;hljs-number&quot;&gt;0.40&lt;/span&gt;)&#xa;&#xa;" style="rounded=0;whiteSpace=wrap;html=1;" vertex="1" parent="1">
          <mxGeometry x="460" y="335" width="280" height="110" as="geometry" />
        </mxCell>
        <mxCell id="PN8-9NpyLgQR28CPuivT-26" value="yes" style="edgeStyle=orthogonalEdgeStyle;rounded=0;orthogonalLoop=1;jettySize=auto;html=1;" edge="1" parent="1" source="PN8-9NpyLgQR28CPuivT-24">
          <mxGeometry relative="1" as="geometry">
            <mxPoint x="420" y="700" as="targetPoint" />
          </mxGeometry>
        </mxCell>
        <mxCell id="PN8-9NpyLgQR28CPuivT-27" value="no" style="edgeStyle=orthogonalEdgeStyle;rounded=0;orthogonalLoop=1;jettySize=auto;html=1;" edge="1" parent="1" source="PN8-9NpyLgQR28CPuivT-24">
          <mxGeometry relative="1" as="geometry">
            <mxPoint x="810" y="700" as="targetPoint" />
          </mxGeometry>
        </mxCell>
        <mxCell id="PN8-9NpyLgQR28CPuivT-24" value="&lt;br&gt;weighted average â‰¥ 60%&lt;div&gt;&lt;br&gt;&lt;/div&gt;" style="rhombus;whiteSpace=wrap;html=1;" vertex="1" parent="1">
          <mxGeometry x="550" y="540" width="170" height="150" as="geometry" />
        </mxCell>
        <mxCell id="PN8-9NpyLgQR28CPuivT-28" value="pass" style="rounded=0;whiteSpace=wrap;html=1;" vertex="1" parent="1">
          <mxGeometry x="360" y="700" width="140" height="60" as="geometry" />
        </mxCell>
        <mxCell id="PN8-9NpyLgQR28CPuivT-29" value="fail" style="rounded=0;whiteSpace=wrap;html=1;" vertex="1" parent="1">
          <mxGeometry x="760" y="700" width="120" height="60" as="geometry" />
        </mxCell>
        <mxCell id="PN8-9NpyLgQR28CPuivT-30" value="stop" style="ellipse;whiteSpace=wrap;html=1;" vertex="1" parent="1">
          <mxGeometry x="540" y="820" width="120" height="80" as="geometry" />
        </mxCell>
        <mxCell id="PN8-9NpyLgQR28CPuivT-31" style="edgeStyle=orthogonalEdgeStyle;rounded=0;orthogonalLoop=1;jettySize=auto;html=1;entryX=0.433;entryY=-0.025;entryDx=0;entryDy=0;entryPerimeter=0;" edge="1" parent="1" source="PN8-9NpyLgQR28CPuivT-28" target="PN8-9NpyLgQR28CPuivT-30">
          <mxGeometry relative="1" as="geometry" />
        </mxCell>
        <mxCell id="PN8-9NpyLgQR28CPuivT-32" style="edgeStyle=orthogonalEdgeStyle;rounded=0;orthogonalLoop=1;jettySize=auto;html=1;entryX=0.447;entryY=0.065;entryDx=0;entryDy=0;entryPerimeter=0;" edge="1" parent="1" source="PN8-9NpyLgQR28CPuivT-29" target="PN8-9NpyLgQR28CPuivT-30">
          <mxGeometry relative="1" as="geometry" />
        </mxCell>
        <mxCell id="PN8-9NpyLgQR28CPuivT-33" style="edgeStyle=orthogonalEdgeStyle;rounded=0;orthogonalLoop=1;jettySize=auto;html=1;entryX=0.067;entryY=0.4;entryDx=0;entryDy=0;entryPerimeter=0;" edge="1" parent="1" source="PN8-9NpyLgQR28CPuivT-21" target="PN8-9NpyLgQR28CPuivT-22">
          <mxGeometry relative="1" as="geometry" />
        </mxCell>
      </root>
    </mxGraphModel>
  </diagram>
</mxfile>
